{"asset":{"version":"2.0","generator":"babylon.js glTF exporter for Maya 2018 v20201223.2"},"scene":0,"scenes":[{"nodes":[0,1]}],"nodes":[{"rotation":[-0.707106769,0.0,0.0,0.707106769],"name":"helmet:rig_posed:GEO"},{"children":[2],"translation":[0.0,-1.68677282,0.0],"name":"helmet:rig_posed:viking"},{"children":[3,4,5,6,7,8,9,10,11],"name":"helmet:rig_posed:Helmet"},{"mesh":0,"name":"helmet:polySurface1"},{"mesh":1,"name":"helmet:polySurface2"},{"mesh":2,"name":"helmet:polySurface3"},{"mesh":3,"name":"helmet:polySurface4"},{"mesh":4,"name":"helmet:polySurface5"},{"mesh":5,"name":"helmet:polySurface6"},{"mesh":6,"name":"helmet:polySurface7"},{"mesh":7,"name":"helmet:polySurface8"},{"mesh":8,"name":"helmet:polySurface9"}],"meshes":[{"primitives":[{"attributes":{"POSITION":1,"TANGENT":2,"NORMAL":3,"TEXCOORD_0":4},"indices":0,"material":0}],"name":"helmet:polySurface1"},{"primitives":[{"attributes":{"POSITION":6,"TANGENT":7,"NORMAL":8,"TEXCOORD_0":9},"indices":5,"material":0}],"name":"helmet:polySurface2"},{"primitives":[{"attributes":{"POSITION":11,"TANGENT":12,"NORMAL":13,"TEXCOORD_0":14},"indices":10,"material":0}],"name":"helmet:polySurface3"},{"primitives":[{"attributes":{"POSITION":16,"TANGENT":17,"NORMAL":18,"TEXCOORD_0":19},"indices":15,"material":0}],"name":"helmet:polySurface4"},{"primitives":[{"attributes":{"POSITION":21,"TANGENT":22,"NORMAL":23,"TEXCOORD_0":24},"indices":20,"material":0}],"name":"helmet:polySurface5"},{"primitives":[{"attributes":{"POSITION":26,"TANGENT":27,"NORMAL":28,"TEXCOORD_0":29},"indices":25,"material":0}],"name":"helmet:polySurface6"},{"primitives":[{"attributes":{"POSITION":31,"TANGENT":32,"NORMAL":33,"TEXCOORD_0":34},"indices":30,"material":0}],"name":"helmet:polySurface7"},{"primitives":[{"attributes":{"POSITION":36,"TANGENT":37,"NORMAL":38,"TEXCOORD_0":39},"indices":35,"material":0}],"name":"helmet:polySurface8"},{"primitives":[{"attributes":{"POSITION":41,"TANGENT":42,"NORMAL":43,"TEXCOORD_0":44},"indices":40,"material":0}],"name":"helmet:polySurface9"}],"accessors":[{"bufferView":0,"componentType":5123,"count":2112,"type":"SCALAR","name":"accessorIndices"},{"bufferView":1,"componentType":5126,"count":377,"max":[0.105961241,1.85283852,0.06991903],"min":[-0.104452312,1.69873953,-0.164327443],"type":"VEC3","name":"accessorPositions"},{"bufferView":2,"componentType":5126,"count":377,"type":"VEC4","name":"accessorTangents"},{"bufferView":1,"byteOffset":4524,"componentType":5126,"count":377,"type":"VEC3","name":"accessorNormals"},{"bufferView":3,"componentType":5126,"count":377,"type":"VEC2","name":"accessorUVs"},{"bufferView":0,"byteOffset":4224,"componentType":5123,"count":594,"type":"SCALAR","name":"accessorIndices"},{"bufferView":1,"byteOffset":9048,"componentType":5126,"count":131,"max":[0.115344167,1.737739,-0.07426486],"min":[-0.116090812,1.55865645,-0.183524057],"type":"VEC3","name":"accessorPositions"},{"bufferView":2,"byteOffset":6032,"componentType":5126,"count":131,"type":"VEC4","name":"accessorTangents"},{"bufferView":1,"byteOffset":10620,"componentType":5126,"count":131,"type":"VEC3","name":"accessorNormals"},{"bufferView":3,"byteOffset":3016,"componentType":5126,"count":131,"type":"VEC2","name":"accessorUVs"},{"bufferView":0,"byteOffset":5412,"componentType":5123,"count":810,"type":"SCALAR","name":"accessorIndices"},{"bufferView":1,"byteOffset":12192,"componentType":5126,"count":204,"max":[0.09471026,1.74824464,0.0789725],"min":[-0.0931760445,1.68664885,-0.003479273],"type":"VEC3","name":"accessorPositions"},{"bufferView":2,"byteOffset":8128,"componentType":5126,"count":204,"type":"VEC4","name":"accessorTangents"},{"bufferView":1,"byteOffset":14640,"componentType":5126,"count":204,"type":"VEC3","name":"accessorNormals"},{"bufferView":3,"byteOffset":4064,"componentType":5126,"count":204,"type":"VEC2","name":"accessorUVs"},{"bufferView":0,"byteOffset":7032,"componentType":5123,"count":336,"type":"SCALAR","name":"accessorIndices"},{"bufferView":1,"byteOffset":17088,"componentType":5126,"count":82,"max":[0.01374817,1.77153468,0.0800427049],"min":[-0.0122022675,1.67341936,0.05823892],"type":"VEC3","name":"accessorPositions"},{"bufferView":2,"byteOffset":11392,"componentType":5126,"count":82,"type":"VEC4","name":"accessorTangents"},{"bufferView":1,"byteOffset":18072,"componentType":5126,"count":82,"type":"VEC3","name":"accessorNormals"},{"bufferView":3,"byteOffset":5696,"componentType":5126,"count":82,"type":"VEC2","name":"accessorUVs"},{"bufferView":0,"byteOffset":7704,"componentType":5123,"count":852,"type":"SCALAR","name":"accessorIndices"},{"bufferView":1,"byteOffset":19056,"componentType":5126,"count":204,"max":[0.0821537,1.71815109,0.0789800137],"min":[-0.08054013,1.6523695,0.0132186711],"type":"VEC3","name":"accessorPositions"},{"bufferView":2,"byteOffset":12704,"componentType":5126,"count":204,"type":"VEC4","name":"accessorTangents"},{"bufferView":1,"byteOffset":21504,"componentType":5126,"count":204,"type":"VEC3","name":"accessorNormals"},{"bufferView":3,"byteOffset":6352,"componentType":5126,"count":204,"type":"VEC2","name":"accessorUVs"},{"bufferView":0,"byteOffset":9408,"componentType":5123,"count":348,"type":"SCALAR","name":"accessorIndices"},{"bufferView":1,"byteOffset":23952,"componentType":5126,"count":80,"max":[0.10306251,1.71617568,0.0159416925],"min":[0.0802548453,1.680838,-0.07424128],"type":"VEC3","name":"accessorPositions"},{"bufferView":2,"byteOffset":15968,"componentType":5126,"count":80,"type":"VEC4","name":"accessorTangents"},{"bufferView":1,"byteOffset":24912,"componentType":5126,"count":80,"type":"VEC3","name":"accessorNormals"},{"bufferView":3,"byteOffset":7984,"componentType":5126,"count":80,"type":"VEC2","name":"accessorUVs"},{"bufferView":0,"byteOffset":10104,"componentType":5123,"count":564,"type":"SCALAR","name":"accessorIndices"},{"bufferView":1,"byteOffset":25872,"componentType":5126,"count":123,"max":[0.117643237,1.69781029,0.0171212647],"min":[0.08542675,1.544674,-0.0768882],"type":"VEC3","name":"accessorPositions"},{"bufferView":2,"byteOffset":17248,"componentType":5126,"count":123,"type":"VEC4","name":"accessorTangents"},{"bufferView":1,"byteOffset":27348,"componentType":5126,"count":123,"type":"VEC3","name":"accessorNormals"},{"bufferView":3,"byteOffset":8624,"componentType":5126,"count":123,"type":"VEC2","name":"accessorUVs"},{"bufferView":0,"byteOffset":11232,"componentType":5123,"count":348,"type":"SCALAR","name":"accessorIndices"},{"bufferView":1,"byteOffset":28824,"componentType":5126,"count":80,"max":[-0.0787268654,1.71658349,0.0159379784],"min":[-0.1019683,1.68184662,-0.0742893741],"type":"VEC3","name":"accessorPositions"},{"bufferView":2,"byteOffset":19216,"componentType":5126,"count":80,"type":"VEC4","name":"accessorTangents"},{"bufferView":1,"byteOffset":29784,"componentType":5126,"count":80,"type":"VEC3","name":"accessorNormals"},{"bufferView":3,"byteOffset":9608,"componentType":5126,"count":80,"type":"VEC2","name":"accessorUVs"},{"bufferView":0,"byteOffset":11928,"componentType":5123,"count":564,"type":"SCALAR","name":"accessorIndices"},{"bufferView":1,"byteOffset":30744,"componentType":5126,"count":123,"max":[-0.0884315446,1.69817436,0.01682112],"min":[-0.1167165,1.54565227,-0.0772815049],"type":"VEC3","name":"accessorPositions"},{"bufferView":2,"byteOffset":20496,"componentType":5126,"count":123,"type":"VEC4","name":"accessorTangents"},{"bufferView":1,"byteOffset":32220,"componentType":5126,"count":123,"type":"VEC3","name":"accessorNormals"},{"bufferView":3,"byteOffset":10248,"componentType":5126,"count":123,"type":"VEC2","name":"accessorUVs"}],"bufferViews":[{"buffer":0,"byteLength":13056,"name":"bufferViewScalar"},{"buffer":0,"byteOffset":13056,"byteLength":33696,"byteStride":12,"name":"bufferViewFloatVec3"},{"buffer":0,"byteOffset":46752,"byteLength":22464,"byteStride":16,"name":"bufferViewFloatVec4"},{"buffer":0,"byteOffset":69216,"byteLength":11232,"byteStride":8,"name":"bufferViewFloatVec2"}],"buffers":[{"uri":"helmet.bin","byteLength":80448}],"materials":[{"pbrMetallicRoughness":{"baseColorFactor":[0.5,0.5,0.5,1.0],"metallicFactor":0.0,"roughnessFactor":0.450053632},"emissiveFactor":[0.5,0.5,0.5],"name":"helmet:rig_posed:man5"}]}